<svg width="648" height="366" viewBox="0 0 648 366" fill="none" xmlns="http://www.w3.org/2000/svg">
<circle cx="318" cy="183" r="183" fill="white"/>
<path d="M75.1814 156.903C74.7148 152.198 72.7123 148.543 69.1738 145.938C65.6354 143.333 60.8333 142.03 54.7675 142.03C50.6458 142.03 47.1658 142.614 44.3273 143.78C41.4888 144.908 39.3113 146.483 37.7948 148.504C36.3172 150.526 35.5785 152.821 35.5785 155.387C35.5007 157.525 35.9478 159.392 36.9199 160.986C37.9309 162.58 39.3113 163.961 41.061 165.127C42.8108 166.255 44.8327 167.246 47.1269 168.102C49.421 168.918 51.8707 169.618 54.4759 170.202L65.2077 172.768C70.4181 173.934 75.2008 175.49 79.5558 177.434C83.9107 179.378 87.6824 181.769 90.8709 184.608C94.0593 187.446 96.5284 190.79 98.2782 194.64C100.067 198.489 100.981 202.903 101.019 207.88C100.981 215.19 99.1142 221.528 95.4203 226.894C91.7652 232.221 86.477 236.362 79.5558 239.317C72.6734 242.233 64.3717 243.691 54.6508 243.691C45.0077 243.691 36.6089 242.214 29.4543 239.259C22.3386 236.304 16.7783 231.929 12.7732 226.136C8.80713 220.303 6.72686 213.09 6.53244 204.497H30.9708C31.2429 208.502 32.39 211.846 34.4119 214.529C36.4728 217.173 39.2141 219.175 42.6358 220.536C46.0965 221.858 50.0043 222.519 54.3592 222.519C58.6364 222.519 62.3498 221.897 65.4994 220.653C68.6878 219.409 71.1569 217.678 72.9067 215.462C74.6564 213.246 75.5313 210.699 75.5313 207.821C75.5313 205.138 74.7342 202.883 73.14 201.056C71.5846 199.228 69.2905 197.673 66.2576 196.39C63.2635 195.106 59.5891 193.94 55.2341 192.89L42.2275 189.624C32.1567 187.174 24.205 183.344 18.3725 178.134C12.5399 172.923 9.64312 165.905 9.68201 157.078C9.64312 149.846 11.5679 143.527 15.4562 138.123C19.3835 132.718 24.7688 128.499 31.6123 125.466C38.4558 122.433 46.2325 120.917 54.9425 120.917C63.8079 120.917 71.5457 122.433 78.1559 125.466C84.805 128.499 89.9766 132.718 93.6705 138.123C97.3644 143.527 99.2697 149.788 99.3864 156.903H75.1814ZM580.745 242H538.401V122.55H581.095C593.11 122.55 603.453 124.941 612.124 129.724C620.795 134.468 627.464 141.292 632.13 150.196C636.835 159.1 639.187 169.754 639.187 182.158C639.187 194.601 636.835 205.294 632.13 214.237C627.464 223.18 620.757 230.043 612.008 234.826C603.298 239.609 592.877 242 580.745 242ZM563.656 220.361H579.696C587.161 220.361 593.441 219.039 598.535 216.395C603.667 213.712 607.517 209.571 610.083 203.972C612.688 198.334 613.991 191.063 613.991 182.158C613.991 173.332 612.688 166.119 610.083 160.52C607.517 154.92 603.687 150.799 598.593 148.155C593.499 145.51 587.22 144.188 579.754 144.188H563.656V220.361Z" fill="white"/>
<path d="M184.323 122.55V242H159.068V122.55H184.323ZM244.879 242V227.01L304.487 143.372H244.762V122.55H336.216V137.539L276.55 221.178H336.333V242H244.879ZM396.773 242V122.55H477.262V143.372H422.028V171.835H473.121V192.657H422.028V221.178H477.495V242H396.773Z" fill="black"/>
</svg>
